<svg width="88" height="162" viewBox="0 0 88 162" fill="none" xmlns="http://www.w3.org/2000/svg">
<path d="M40.1228 83.6018C46.8783 100.745 58.1511 114.547 69.4923 128.433C75.3369 135.589 81.1996 142.767 86.4715 150.436C89.2063 154.413 87.4946 158.788 81.9021 161.027C64.6722 167.924 37.1651 136.473 22.0707 119.214C19.2725 116.015 16.9009 113.303 15.1004 111.414C-5.03346 90.2886 -5.03345 71.7114 15.1004 50.5862C16.9009 48.697 19.2725 45.9853 22.0707 42.7858C25.058 39.3702 28.5315 35.3986 32.3152 31.2785C29.4863 47.9165 32.0136 67.3996 40.1228 83.6018Z" fill="#F7C20F"/>
<path d="M40.9814 22.2239C54.7595 8.51374 70.5582 -3.56825 81.9021 0.97254C87.4946 3.21173 89.2063 7.58729 86.4715 11.5642C81.1994 19.2334 75.3367 26.4116 69.4921 33.5675C59.3434 45.9933 49.2496 58.3519 42.3983 73.0976C40.5192 67.7985 38.7172 60.6433 37.8347 51.3961C36.5929 38.3827 38.7524 28.5171 40.9814 22.2239Z" fill="#F7C20F"/>
</svg>
